<?xml version="1.0" standalone="no"?>
<!DOCTYPE svg PUBLIC "-//W3C//DTD SVG 20010904//EN"
 "http://www.w3.org/TR/2001/REC-SVG-20010904/DTD/svg10.dtd">
<svg version="1.0" xmlns="http://www.w3.org/2000/svg"
 width="300.000000pt" height="300.000000pt" viewBox="0 0 300.000000 300.000000"
 preserveAspectRatio="xMidYMid meet">
<metadata>
Created by potrace 1.10, written by Peter Selinger 2001-2011
</metadata>
<g transform="translate(0.000000,300.000000) scale(0.100000,-0.100000)"
fill="#000000" stroke="none">
<path d="M1216 2744 c-353 -97 -620 -334 -720 -642 -27 -82 -16 -270 25 -436
50 -199 149 -389 287 -555 35 -41 69 -89 78 -107 36 -75 230 -197 444 -278 41
-16 -304 5 -394 23 -55 11 -102 19 -104 17 -5 -6 120 -33 218 -47 161 -24 652
-12 707 16 15 8 34 15 41 15 23 0 135 41 212 77 85 40 155 87 218 147 64 61
51 31 -27 -59 -274 -323 -752 -552 -1194 -572 -70 -3 -125 -8 -123 -10 7 -8
184 -51 281 -70 66 -13 144 -17 295 -18 226 0 329 16 494 76 105 38 267 131
253 146 -2 2 -60 -25 -129 -60 -138 -70 -265 -110 -403 -128 -86 -11 -335 -14
-402 -5 -57 8 -158 27 -172 32 -23 8 31 32 99 44 296 54 577 181 815 371 98
78 258 250 367 395 5 7 10 25 12 40 3 16 24 79 49 140 80 199 113 381 96 537
-5 44 -12 83 -16 86 -3 4 -2 -19 1 -50 8 -67 -6 -162 -40 -269 -29 -91 -40
-106 -36 -45 5 51 -20 167 -50 245 -56 142 -189 283 -301 319 -48 16 -63 5
-78 -55 -6 -24 -15 -44 -19 -44 -5 0 -22 21 -38 48 -36 57 -91 116 -157 169
-55 43 -159 107 -195 118 -13 4 -37 15 -52 25 -24 14 -26 19 -13 24 9 3 35 6
56 6 24 0 38 4 34 10 -3 6 2 10 12 11 10 0 27 2 38 5 11 2 70 7 132 10 124 7
237 -5 336 -37 79 -26 200 -84 217 -104 7 -8 16 -13 20 -10 21 13 170 -138
235 -240 101 -156 144 -300 152 -506 13 -318 -83 -615 -276 -859 -83 -104
-214 -220 -248 -220 -12 0 -28 -11 -37 -25 -9 -14 -39 -43 -67 -65 -28 -22
-49 -40 -46 -40 10 0 134 73 182 108 230 164 403 421 479 712 126 476 -16 926
-364 1159 -184 123 -386 171 -634 151 -109 -9 -246 -39 -293 -64 -23 -11 -19
-14 61 -45 219 -85 410 -255 449 -398 6 -24 14 -43 17 -43 8 0 37 94 46 148 4
23 9 42 11 42 3 0 33 -15 67 -32 89 -48 174 -139 224 -240 64 -129 77 -190 76
-353 -1 -181 -31 -304 -96 -400 -24 -35 -45 -62 -48 -62 -3 1 -32 -19 -65 -44
-169 -129 -408 -229 -584 -245 -135 -13 -339 30 -476 98 -73 37 -192 118 -227
155 -67 71 -140 349 -154 591 -13 219 47 556 128 715 11 22 17 41 15 43 -7 7
-63 -126 -87 -206 -12 -41 -28 -93 -36 -115 -12 -36 -29 -103 -40 -164 -9 -47
-11 -279 -2 -367 5 -50 19 -141 32 -203 13 -61 19 -114 15 -117 -15 -9 -144
201 -183 298 -21 51 -41 100 -45 108 -8 15 -44 165 -61 250 -18 90 -22 186
-10 231 18 67 103 232 153 296 100 129 216 226 352 293 84 42 155 65 155 50 0
-4 -9 -15 -21 -26 -52 -47 -35 -51 22 -6 34 28 87 64 118 81 67 36 55 37 -63
5z m1284 -1226 c-7 -32 -16 -58 -20 -58 -4 0 -4 19 1 43 5 23 12 60 16 82 6
32 8 35 11 16 2 -14 -2 -51 -8 -83z"/>
<path d="M1444 2736 c-92 -18 -135 -32 -209 -69 -76 -38 -115 -65 -114 -80 0
-9 2 -8 6 1 2 6 10 12 17 12 6 0 41 16 78 35 102 55 240 86 379 86 148 1 365
-37 309 -54 -8 -3 -53 -10 -100 -16 -244 -33 -468 -143 -652 -319 -149 -144
-223 -257 -303 -467 -6 -18 -9 -16 -20 15 l-13 35 -1 -35 c0 -48 25 -168 31
-150 3 8 11 44 17 80 49 264 308 573 596 710 199 95 433 137 610 111 38 -5 71
-9 73 -7 6 7 -171 68 -268 92 -120 31 -328 41 -436 20z"/>
<path d="M493 2268 c-115 -178 -188 -348 -224 -521 -17 -85 -20 -125 -16 -242
3 -83 12 -166 22 -205 36 -138 150 -331 234 -395 l23 -18 -18 29 c-10 16 -36
52 -58 79 -40 52 -106 151 -106 161 0 2 -7 20 -15 40 -8 19 -14 37 -15 39 0 3
-7 22 -14 42 -39 103 -48 307 -20 454 28 151 141 428 167 412 5 -3 7 -1 3 5
-3 6 -2 13 4 17 6 3 13 -1 17 -11 4 -11 13 9 25 56 10 40 26 86 34 101 27 53
4 30 -43 -43z"/>
<path d="M2400 2279 c0 -4 16 -40 35 -80 20 -41 33 -63 29 -49 -7 26 -63 139
-64 129z"/>
<path d="M2470 2118 c1 -2 12 -43 25 -93 14 -49 22 -72 19 -50 -6 47 -33 145
-40 145 -2 0 -4 -1 -4 -2z"/>
<path d="M241 1085 c98 -274 265 -472 509 -604 105 -56 320 -125 320 -102 0 5
-28 16 -62 26 -199 54 -350 139 -485 273 -90 89 -219 279 -201 297 4 4 30 -11
60 -32 29 -22 65 -45 80 -53 52 -25 39 -2 -24 43 -70 49 -150 123 -191 177
l-27 35 21 -60z"/>
</g>
</svg>
